{
    "asset" : {
        "generator" : "Khronos glTF Blender I/O v1.1.46",
        "version" : "2.0"
    },
    "scene" : 0,
    "scenes" : [
        {
            "name" : "Scene",
            "nodes" : [
                0
            ]
        }
    ],
    "nodes" : [
        {
            "mesh" : 0,
            "name" : "brick_Cube.002"
        }
    ],
    "materials" : [
        {
            "doubleSided" : true,
            "emissiveFactor" : [
                0,
                0,
                0
            ],
            "name" : "Ext.003",
            "pbrMetallicRoughness" : {
                "baseColorTexture" : {
                    "index" : 0,
                    "texCoord" : 0
                },
                "metallicFactor" : 0,
                "roughnessFactor" : 0.8999999761581421
            }
        },
        {
            "doubleSided" : true,
            "emissiveFactor" : [
                0,
                0,
                0
            ],
            "name" : "Int.003",
            "pbrMetallicRoughness" : {
                "baseColorTexture" : {
                    "index" : 1,
                    "texCoord" : 0
                },
                "metallicFactor" : 0,
                "roughnessFactor" : 0.5
            }
        }
    ],
    "meshes" : [
        {
            "name" : "brick_Cube.002",
            "primitives" : [
                {
                    "attributes" : {
                        "POSITION" : 0,
                        "NORMAL" : 1,
                        "TEXCOORD_0" : 2
                    },
                    "indices" : 3,
                    "material" : 0
                },
                {
                    "attributes" : {
                        "POSITION" : 4,
                        "NORMAL" : 5,
                        "TEXCOORD_0" : 6
                    },
                    "indices" : 7,
                    "material" : 1
                }
            ]
        }
    ],
    "textures" : [
        {
            "source" : 0
        },
        {
            "source" : 1
        }
    ],
    "images" : [
        {
            "bufferView" : 4,
            "mimeType" : "image/png",
            "name" : "clay"
        },
        {
            "bufferView" : 9,
            "mimeType" : "image/png",
            "name" : "cement"
        }
    ],
    "accessors" : [
        {
            "bufferView" : 0,
            "componentType" : 5126,
            "count" : 3028,
            "max" : [
                0.9860619902610779,
                0.9860619902610779,
                -0.013938000425696373
            ],
            "min" : [
                -0.9860619902610779,
                -0.9860619902610779,
                -1.9860620498657227
            ],
            "type" : "VEC3"
        },
        {
            "bufferView" : 1,
            "componentType" : 5126,
            "count" : 3028,
            "type" : "VEC3"
        },
        {
            "bufferView" : 2,
            "componentType" : 5126,
            "count" : 3028,
            "type" : "VEC2"
        },
        {
            "bufferView" : 3,
            "componentType" : 5123,
            "count" : 11280,
            "type" : "SCALAR"
        },
        {
            "bufferView" : 5,
            "componentType" : 5126,
            "count" : 400,
            "max" : [
                0.8999999761581421,
                0.8999999761581421,
                -0.10000000149011612
            ],
            "min" : [
                -0.8999999761581421,
                -0.8999999761581421,
                -1.899999976158142
            ],
            "type" : "VEC3"
        },
        {
            "bufferView" : 6,
            "componentType" : 5126,
            "count" : 400,
            "type" : "VEC3"
        },
        {
            "bufferView" : 7,
            "componentType" : 5126,
            "count" : 400,
            "type" : "VEC2"
        },
        {
            "bufferView" : 8,
            "componentType" : 5123,
            "count" : 1188,
            "type" : "SCALAR"
        }
    ],
    "bufferViews" : [
        {
            "buffer" : 0,
            "byteLength" : 36336,
            "byteOffset" : 0
        },
        {
            "buffer" : 0,
            "byteLength" : 36336,
            "byteOffset" : 36336
        },
        {
            "buffer" : 0,
            "byteLength" : 24224,
            "byteOffset" : 72672
        },
        {
            "buffer" : 0,
            "byteLength" : 22560,
            "byteOffset" : 96896
        },
        {
            "buffer" : 0,
            "byteLength" : 24133,
            "byteOffset" : 119456
        },
        {
            "buffer" : 0,
            "byteLength" : 4800,
            "byteOffset" : 143592
        },
        {
            "buffer" : 0,
            "byteLength" : 4800,
            "byteOffset" : 148392
        },
        {
            "buffer" : 0,
            "byteLength" : 3200,
            "byteOffset" : 153192
        },
        {
            "buffer" : 0,
            "byteLength" : 2376,
            "byteOffset" : 156392
        },
        {
            "buffer" : 0,
            "byteLength" : 23130,
            "byteOffset" : 158768
        }
    ],
    "buffers" : [
        {
            "byteLength" : 181900,
            "uri" : "data:application/octet-stream;base64,"
        }
    ]
}
